<svg width="500" height="500" viewBox="0 0 500 500" fill="none" xmlns="http://www.w3.org/2000/svg">
<g clip-path="url(#clip0_109_2)">
<path d="M89.4121 318.276C92.9766 311.147 97.4915 302.355 102.957 291.899C108.66 281.206 114.482 270.513 120.423 259.819C126.601 249.126 132.542 239.027 138.245 229.521C144.186 220.016 149.176 212.769 153.216 207.778C160.107 199.461 167.236 193.521 174.603 189.956C181.969 186.392 188.742 184.609 194.92 184.609C201.098 184.609 206.326 185.916 210.604 188.53C215.118 191.144 218.802 194.709 221.653 199.224C224.505 203.501 226.644 208.61 228.069 214.551C229.495 220.254 230.208 226.432 230.208 233.086C230.208 236.888 229.97 241.878 229.495 248.057C229.257 254.235 228.901 260.889 228.426 268.018C228.188 275.146 227.832 282.513 227.356 290.117C227.119 297.721 226.881 304.85 226.644 311.504C230.208 304.375 234.248 296.533 238.763 287.979C243.278 279.186 247.793 270.513 252.308 261.958C257.06 253.403 261.575 245.443 265.853 238.076C270.13 230.472 274.051 224.294 277.615 219.541C287.833 205.521 297.339 196.134 306.131 191.382C315.161 186.629 323.121 184.253 330.013 184.253C338.092 184.253 344.746 185.798 349.974 188.887C355.201 191.738 359.241 195.54 362.093 200.293C365.182 204.808 367.321 209.917 368.509 215.62C369.697 221.323 370.291 226.789 370.291 232.017C370.291 240.096 369.697 248.532 368.509 257.324C367.321 266.117 366.727 276.572 366.727 288.691C366.727 293.682 366.964 298.672 367.439 303.662C367.915 308.652 368.865 313.049 370.291 316.851C371.954 320.653 374.45 323.742 377.776 326.118C381.103 328.494 385.618 329.683 391.321 329.683C397.5 329.683 403.559 328.138 409.5 325.049C415.441 321.722 421.144 317.445 426.609 312.217C432.075 306.989 437.184 301.048 441.937 294.395C446.927 287.741 451.442 281.087 455.481 274.434C459.521 267.78 463.086 261.483 466.175 255.542C469.264 249.364 471.759 244.136 473.66 239.858C474.848 237.244 476.512 235.225 478.65 233.799C480.789 232.373 483.165 231.66 485.779 231.66C489.819 231.66 493.027 233.205 495.403 236.294C498.017 239.146 499.324 242.235 499.324 245.562C499.324 247.225 498.968 248.888 498.255 250.552C497.304 252.453 495.403 256.493 492.552 262.671C489.7 268.612 485.898 275.503 481.146 283.345C476.393 290.949 470.809 299.028 464.393 307.583C458.214 316.138 451.323 324.098 443.719 331.465C436.115 338.594 427.916 344.535 419.124 349.287C410.332 353.802 401.064 356.06 391.321 356.06C380.866 356.06 372.311 354.159 365.657 350.356C359.241 346.792 354.013 341.921 349.974 335.742C346.172 329.564 343.558 322.435 342.132 314.355C340.706 306.276 339.993 297.84 339.993 289.048C339.993 277.404 340.587 266.711 341.775 256.968C342.964 246.987 343.558 239.264 343.558 233.799C343.558 227.858 342.964 223.343 341.775 220.254C340.825 217.165 339.518 215.026 337.854 213.838C336.429 212.412 335.003 211.699 333.577 211.699C332.151 211.462 331.082 211.343 330.369 211.343C324.666 211.343 318.606 214.551 312.19 220.967C306.012 227.145 299.596 235.462 292.942 245.918C286.289 256.374 279.397 268.255 272.269 281.562C265.377 294.87 258.367 308.415 251.238 322.197C247.199 329.801 243.753 336.099 240.901 341.089C238.287 346.079 235.674 350 233.06 352.852C230.683 355.703 228.307 357.723 225.931 358.911C223.554 360.099 220.94 360.693 218.089 360.693C211.91 360.693 207.158 358.555 203.831 354.277C200.742 350 199.197 344.416 199.197 337.524C199.197 333.96 199.316 329.207 199.554 323.267C199.791 317.326 200.029 310.791 200.267 303.662C200.504 296.533 200.861 289.167 201.336 281.562C201.811 273.958 202.168 266.711 202.405 259.819C202.643 252.69 202.881 246.393 203.118 240.928C203.356 235.462 203.475 231.304 203.475 228.452C203.475 222.274 202.405 217.878 200.267 215.264C198.128 212.412 195.633 210.986 192.781 210.986C190.167 210.986 187.197 211.937 183.87 213.838C180.781 215.739 177.098 219.422 172.82 224.888C169.493 229.165 165.216 235.462 159.988 243.779C154.998 251.859 149.651 260.889 143.948 270.869C138.245 280.85 132.542 291.068 126.839 301.523C121.373 311.979 116.621 321.366 112.581 329.683C107.591 339.663 102.601 346.436 97.6104 350C92.6201 353.802 87.7487 355.703 82.9961 355.703C76.1048 355.703 70.9958 353.683 67.6689 349.644C64.3421 345.366 62.6787 339.782 62.6787 332.891C62.6787 332.178 62.7975 327.9 63.0352 320.059C63.5104 312.217 63.9857 302.712 64.4609 291.543C64.9362 280.137 65.4115 268.018 65.8867 255.186C66.5996 242.354 67.1937 230.353 67.6689 219.185C67.9066 213.244 67.6689 207.778 66.9561 202.788C66.2432 197.798 65.2926 194.827 64.1045 193.877C62.2035 194.352 58.4014 198.748 52.6982 207.065C47.2327 215.382 40.2227 229.878 31.668 250.552C30.4798 253.166 28.6976 255.186 26.3213 256.611C23.945 258.037 21.4499 258.75 18.8359 258.75C14.7962 258.75 11.5882 257.443 9.21191 254.829C6.83561 251.978 5.64746 248.77 5.64746 245.205C5.64746 243.542 6.00391 241.759 6.7168 239.858C17.4102 214.432 27.6283 195.778 37.3711 183.896C47.1139 171.777 56.6191 165.718 65.8867 165.718C71.3522 165.718 75.8672 167.025 79.4316 169.639C83.2337 172.015 86.2041 175.223 88.3428 179.263C90.4814 183.065 92.026 187.461 92.9766 192.451C93.9271 197.441 94.4023 202.313 94.4023 207.065C94.4023 228.215 93.8083 247.581 92.6201 265.166C91.6696 282.751 90.6003 300.454 89.4121 318.276Z" fill="#53E0FF"/>
</g>
<defs>
<clipPath id="clip0_109_2">
<rect width="500" height="500" rx="250" fill="white"/>
</clipPath>
</defs>
</svg>
